<svg width="22" height="20" viewBox="0 0 22 20" fill="none" xmlns="http://www.w3.org/2000/svg">
    <path d="M11.8851 12.8652H7.71838" stroke="white" stroke-width="1.5" stroke-miterlimit="10" stroke-linecap="round" stroke-linejoin="round"></path>
    <path d="M10.5502 2.09828L10.5252 2.15662L8.10855 7.76495H5.73355C5.16688 7.76495 4.62521 7.88162 4.13354 8.08995L5.59188 4.60662L5.62521 4.52328L5.68355 4.38995C5.70021 4.33995 5.71688 4.28995 5.74188 4.24828C6.83355 1.72328 8.06688 1.14828 10.5502 2.09828Z" stroke="white" stroke-width="1.5" stroke-linecap="round" stroke-linejoin="round"></path>
    <path d="M15.0419 7.93197C14.6669 7.8153 14.2669 7.7653 13.8669 7.7653H8.10852L10.5252 2.15697L10.5502 2.09863C10.6752 2.1403 10.7919 2.19863 10.9169 2.24863L12.7585 3.02363C13.7835 3.44863 14.5002 3.8903 14.9335 4.42363C15.0169 4.52363 15.0835 4.6153 15.1419 4.72363C15.2169 4.8403 15.2752 4.95697 15.3085 5.08197C15.3419 5.15697 15.3669 5.23197 15.3835 5.29863C15.6085 5.99863 15.4752 6.85697 15.0419 7.93197Z" stroke="white" stroke-width="1.5" stroke-linecap="round" stroke-linejoin="round"></path>
    <path d="M17.935 11.8318V13.4568C17.935 13.6235 17.9266 13.7901 17.9183 13.9568C17.76 16.8651 16.135 18.3318 13.0516 18.3318H6.55164C6.35164 18.3318 6.15164 18.3151 5.95997 18.2901C3.30997 18.1151 1.8933 16.6985 1.7183 14.0485C1.6933 13.8568 1.67664 13.6568 1.67664 13.4568V11.8318C1.67664 10.1568 2.6933 8.71514 4.1433 8.09014C4.6433 7.8818 5.17664 7.76514 5.7433 7.76514H13.8766C14.285 7.76514 14.685 7.82347 15.0516 7.9318C16.71 8.44014 17.935 9.99014 17.935 11.8318Z" stroke="white" stroke-width="1.5" stroke-linecap="round" stroke-linejoin="round"></path>
    <path d="M5.59187 4.60693L4.13354 8.09027C2.68354 8.71527 1.66687 10.1569 1.66687 11.8319V9.39027C1.66687 7.0236 3.3502 5.0486 5.59187 4.60693Z" stroke="white" stroke-width="1.5" stroke-linecap="round" stroke-linejoin="round"></path>
    <path d="M17.9324 9.38988V11.8315C17.9324 9.99821 16.7157 8.43988 15.0491 7.93988C15.4824 6.85654 15.6074 6.00654 15.3991 5.29821C15.3824 5.22321 15.3574 5.14821 15.3241 5.08154C16.8741 5.88154 17.9324 7.52321 17.9324 9.38988Z" stroke="white" stroke-width="1.5" stroke-linecap="round" stroke-linejoin="round"></path>
</svg>